<svg width="25" height="25" viewBox="0 0 25 25" fill="none" xmlns="http://www.w3.org/2000/svg">
<g clip-path="url(#clip0_418_16)">
<path d="M1.10507 4.34473V10.3447H7.10507" stroke="#2192FF" stroke-width="2" stroke-linecap="round" stroke-linejoin="round"/>
<path d="M3.61507 15.3447C4.26347 17.1851 5.49241 18.7649 7.11673 19.8461C8.74105 20.9272 10.6728 21.4513 12.6208 21.3391C14.5688 21.227 16.4277 20.4848 17.9172 19.2244C19.4067 17.964 20.4463 16.2537 20.8793 14.351C21.3123 12.4484 21.1152 10.4566 20.3177 8.67578C19.5202 6.89492 18.1656 5.42147 16.4579 4.47744C14.7502 3.53341 12.782 3.16994 10.8497 3.44179C8.91752 3.71365 7.12598 4.6061 5.74507 5.98468L1.10507 10.3447" stroke="#2192FF" stroke-width="2" stroke-linecap="round" stroke-linejoin="round"/>
</g>
<defs>
<clipPath id="clip0_418_16">
<rect width="24" height="24" fill="white" transform="translate(0.105072 0.344727)"/>
</clipPath>
</defs>
</svg>
