<svg width="30" height="30" viewBox="0 0 30 30" fill="none" xmlns="http://www.w3.org/2000/svg">
<rect width="30" height="30" fill="white"/>
<path d="M14.5 2C7.625 2 2 7.625 2 14.5C2 21.375 7.625 27 14.5 27C21.375 27 27 21.375 27 14.5C27 7.625 21.375 2 14.5 2ZM14.5 24.5C8.9875 24.5 4.5 20.0125 4.5 14.5C4.5 8.9875 8.9875 4.5 14.5 4.5C20.0125 4.5 24.5 8.9875 24.5 14.5C24.5 20.0125 20.0125 24.5 14.5 24.5ZM20.2375 8.975L12 17.2125L8.7625 13.9875L7 15.75L12 20.75L22 10.75L20.2375 8.975Z" fill="#2192FF"/>
</svg>
